<mxfile host="app.diagrams.net" agent="Mozilla/5.0 (Macintosh; Intel Mac OS X 10_15_7) AppleWebKit/605.1.15 (KHTML, like Gecko) Version/18.2 Safari/605.1.15" version="26.0.7">
  <diagram name="Page-1" id="_iEmG7TuGi0h03ijBj0R">
    <mxGraphModel dx="1628" dy="788" grid="1" gridSize="10" guides="1" tooltips="1" connect="1" arrows="1" fold="1" page="0" pageScale="1" pageWidth="850" pageHeight="1100" background="none" math="0" shadow="0">
      <root>
        <mxCell id="0" />
        <mxCell id="1" parent="0" />
        <mxCell id="WH-kuMUDouAOxWp1CXI8-2" value="AWS Cloud" style="sketch=0;outlineConnect=0;gradientColor=none;html=1;whiteSpace=wrap;fontSize=12;fontStyle=0;shape=mxgraph.aws4.group;grIcon=mxgraph.aws4.group_aws_cloud;strokeColor=#858B94;fillColor=none;verticalAlign=top;align=left;spacingLeft=30;fontColor=#858B94;dashed=0;" vertex="1" parent="1">
          <mxGeometry x="-70" y="40" width="470" height="490" as="geometry" />
        </mxCell>
        <mxCell id="WH-kuMUDouAOxWp1CXI8-9" style="edgeStyle=none;curved=1;rounded=0;orthogonalLoop=1;jettySize=auto;html=1;fontSize=12;startSize=8;endSize=8;" edge="1" parent="1" source="WH-kuMUDouAOxWp1CXI8-12" target="WH-kuMUDouAOxWp1CXI8-18">
          <mxGeometry relative="1" as="geometry" />
        </mxCell>
        <mxCell id="WH-kuMUDouAOxWp1CXI8-10" style="edgeStyle=none;curved=1;rounded=0;orthogonalLoop=1;jettySize=auto;html=1;fontSize=12;startSize=8;endSize=8;" edge="1" parent="1" source="WH-kuMUDouAOxWp1CXI8-12" target="WH-kuMUDouAOxWp1CXI8-22">
          <mxGeometry relative="1" as="geometry" />
        </mxCell>
        <mxCell id="WH-kuMUDouAOxWp1CXI8-11" style="edgeStyle=none;curved=1;rounded=0;orthogonalLoop=1;jettySize=auto;html=1;fontSize=12;startSize=8;endSize=8;" edge="1" parent="1" source="WH-kuMUDouAOxWp1CXI8-12" target="WH-kuMUDouAOxWp1CXI8-37">
          <mxGeometry relative="1" as="geometry" />
        </mxCell>
        <mxCell id="WH-kuMUDouAOxWp1CXI8-12" value="&lt;b&gt;&lt;font style=&quot;font-size: 10px;&quot;&gt;process-cards-service&lt;/font&gt;&lt;/b&gt;&lt;div&gt;&lt;font style=&quot;font-size: 10px;&quot;&gt;Lambda function&lt;/font&gt;&lt;/div&gt;" style="sketch=0;outlineConnect=0;fontColor=#232F3E;gradientColor=none;fillColor=#ED7100;strokeColor=none;dashed=0;verticalLabelPosition=bottom;verticalAlign=top;align=center;html=1;fontSize=12;fontStyle=0;aspect=fixed;pointerEvents=1;shape=mxgraph.aws4.lambda_function;" vertex="1" parent="1">
          <mxGeometry x="80" y="79.99999999999997" width="33" height="33" as="geometry" />
        </mxCell>
        <mxCell id="WH-kuMUDouAOxWp1CXI8-18" value="&lt;b&gt;&lt;font style=&quot;font-size: 10px;&quot;&gt;Amazon SQS&lt;/font&gt;&lt;/b&gt;&lt;div&gt;&lt;font style=&quot;font-size: 10px;&quot;&gt;card-application-queue&lt;/font&gt;&lt;/div&gt;" style="sketch=0;points=[[0,0,0],[0.25,0,0],[0.5,0,0],[0.75,0,0],[1,0,0],[0,1,0],[0.25,1,0],[0.5,1,0],[0.75,1,0],[1,1,0],[0,0.25,0],[0,0.5,0],[0,0.75,0],[1,0.25,0],[1,0.5,0],[1,0.75,0]];outlineConnect=0;fontColor=#232F3E;fillColor=#E7157B;strokeColor=#ffffff;dashed=0;verticalLabelPosition=bottom;verticalAlign=top;align=center;html=1;fontSize=12;fontStyle=0;aspect=fixed;shape=mxgraph.aws4.resourceIcon;resIcon=mxgraph.aws4.sqs;" vertex="1" parent="1">
          <mxGeometry x="80" y="239.99999999999991" width="33" height="33" as="geometry" />
        </mxCell>
        <mxCell id="WH-kuMUDouAOxWp1CXI8-19" value="&lt;b&gt;&lt;font style=&quot;font-size: 10px;&quot;&gt;Amazon SQS&lt;/font&gt;&lt;/b&gt;&lt;div&gt;&lt;font style=&quot;font-size: 10px;&quot;&gt;card-application-DLQ&lt;/font&gt;&lt;/div&gt;" style="sketch=0;points=[[0,0,0],[0.25,0,0],[0.5,0,0],[0.75,0,0],[1,0,0],[0,1,0],[0.25,1,0],[0.5,1,0],[0.75,1,0],[1,1,0],[0,0.25,0],[0,0.5,0],[0,0.75,0],[1,0.25,0],[1,0.5,0],[1,0.75,0]];outlineConnect=0;fontColor=#232F3E;fillColor=#E7157B;strokeColor=#ffffff;dashed=0;verticalLabelPosition=bottom;verticalAlign=top;align=center;html=1;fontSize=12;fontStyle=0;aspect=fixed;shape=mxgraph.aws4.resourceIcon;resIcon=mxgraph.aws4.sqs;" vertex="1" parent="1">
          <mxGeometry x="80" y="440" width="33" height="33" as="geometry" />
        </mxCell>
        <mxCell id="WH-kuMUDouAOxWp1CXI8-20" style="edgeStyle=none;curved=1;rounded=0;orthogonalLoop=1;jettySize=auto;html=1;entryX=0.5;entryY=0;entryDx=0;entryDy=0;entryPerimeter=0;fontSize=12;startSize=8;endSize=8;" edge="1" parent="1" source="WH-kuMUDouAOxWp1CXI8-18" target="WH-kuMUDouAOxWp1CXI8-19">
          <mxGeometry relative="1" as="geometry" />
        </mxCell>
        <mxCell id="WH-kuMUDouAOxWp1CXI8-21" value="&lt;span style=&quot;text-align: start; white-space: normal;&quot;&gt;Stores failed messages for manual review or reprocessing&lt;/span&gt;" style="edgeLabel;html=1;align=center;verticalAlign=middle;resizable=0;points=[];fontSize=9;" vertex="1" connectable="0" parent="WH-kuMUDouAOxWp1CXI8-20">
          <mxGeometry x="0.0244" y="3" relative="1" as="geometry">
            <mxPoint y="12" as="offset" />
          </mxGeometry>
        </mxCell>
        <mxCell id="WH-kuMUDouAOxWp1CXI8-22" value="&lt;b&gt;&lt;font style=&quot;font-size: 10px;&quot;&gt;DynamoDB&lt;/font&gt;&lt;/b&gt;&lt;div&gt;&lt;font style=&quot;font-size: 10px;&quot;&gt;cards&lt;/font&gt;&lt;/div&gt;" style="sketch=0;points=[[0,0,0],[0.25,0,0],[0.5,0,0],[0.75,0,0],[1,0,0],[0,1,0],[0.25,1,0],[0.5,1,0],[0.75,1,0],[1,1,0],[0,0.25,0],[0,0.5,0],[0,0.75,0],[1,0.25,0],[1,0.5,0],[1,0.75,0]];outlineConnect=0;fontColor=#232F3E;fillColor=#C925D1;strokeColor=#ffffff;dashed=0;verticalLabelPosition=bottom;verticalAlign=top;align=center;html=1;fontSize=12;fontStyle=0;aspect=fixed;shape=mxgraph.aws4.resourceIcon;resIcon=mxgraph.aws4.dynamodb;" vertex="1" parent="1">
          <mxGeometry x="320" y="80" width="33" height="33" as="geometry" />
        </mxCell>
        <mxCell id="WH-kuMUDouAOxWp1CXI8-30" style="edgeStyle=none;curved=1;rounded=0;orthogonalLoop=1;jettySize=auto;html=1;exitX=1;exitY=1;exitDx=0;exitDy=0;fontFamily=Helvetica;fontSize=12;fontColor=default;labelBackgroundColor=#ffffff;startSize=8;endSize=8;" edge="1" parent="1">
          <mxGeometry relative="1" as="geometry">
            <mxPoint x="459.6999999999998" y="441.97" as="sourcePoint" />
            <mxPoint x="459.6999999999998" y="441.97" as="targetPoint" />
          </mxGeometry>
        </mxCell>
        <mxCell id="WH-kuMUDouAOxWp1CXI8-31" style="edgeStyle=none;curved=1;rounded=0;orthogonalLoop=1;jettySize=auto;html=1;exitX=0.5;exitY=1;exitDx=0;exitDy=0;fontFamily=Helvetica;fontSize=12;fontColor=default;labelBackgroundColor=#ffffff;startSize=8;endSize=8;" edge="1" parent="1">
          <mxGeometry relative="1" as="geometry">
            <mxPoint x="360.70000000000005" y="441.97" as="sourcePoint" />
            <mxPoint x="360.70000000000005" y="441.97" as="targetPoint" />
          </mxGeometry>
        </mxCell>
        <mxCell id="WH-kuMUDouAOxWp1CXI8-33" value="&lt;font style=&quot;font-size: 9px;&quot;&gt;Message Redrive&lt;/font&gt;" style="edgeStyle=none;curved=0;rounded=1;orthogonalLoop=1;jettySize=auto;html=1;entryX=1;entryY=0.5;entryDx=0;entryDy=0;entryPerimeter=0;fontFamily=Helvetica;fontSize=12;fontColor=default;labelBackgroundColor=#ffffff;startSize=8;endSize=8;" edge="1" parent="1" source="WH-kuMUDouAOxWp1CXI8-19" target="WH-kuMUDouAOxWp1CXI8-18">
          <mxGeometry x="0.0185" relative="1" as="geometry">
            <Array as="points">
              <mxPoint x="260" y="340" />
            </Array>
            <mxPoint as="offset" />
          </mxGeometry>
        </mxCell>
        <mxCell id="WH-kuMUDouAOxWp1CXI8-37" value="&lt;font style=&quot;font-size: 10px;&quot;&gt;&lt;b&gt;Amazon&lt;br&gt;CloudWatch&lt;/b&gt;&lt;/font&gt;" style="outlineConnect=0;fontColor=#232F3E;gradientColor=#F34482;gradientDirection=north;fillColor=#BC1356;strokeColor=#ffffff;dashed=0;verticalLabelPosition=bottom;verticalAlign=top;align=center;html=1;fontSize=12;fontStyle=0;aspect=fixed;shape=mxgraph.aws4.resourceIcon;resIcon=mxgraph.aws4.cloudwatch;labelBackgroundColor=#ffffff;" vertex="1" parent="1">
          <mxGeometry x="260" y="207" width="33" height="33" as="geometry" />
        </mxCell>
        <mxCell id="WH-kuMUDouAOxWp1CXI8-44" style="edgeStyle=none;curved=1;rounded=0;orthogonalLoop=1;jettySize=auto;html=1;exitX=0.5;exitY=1;exitDx=0;exitDy=0;fontSize=12;startSize=8;endSize=8;" edge="1" parent="1">
          <mxGeometry relative="1" as="geometry">
            <mxPoint x="360.70000000000005" y="429" as="sourcePoint" />
            <mxPoint x="360.70000000000005" y="429" as="targetPoint" />
          </mxGeometry>
        </mxCell>
      </root>
    </mxGraphModel>
  </diagram>
</mxfile>
